<?xml version="1.0" encoding="UTF-8" standalone="no"?>
<!-- Created with Inkscape (http://www.inkscape.org/) --><svg height="256" id="svg1128" inkscape:output_extension="org.inkscape.output.svg.inkscape" inkscape:version="0.46" sodipodi:docname="RKWard.svg" sodipodi:version="0.32" version="1.0" width="256" x="0.0000000" xmlns="http://www.w3.org/2000/svg" xmlns:cc="http://creativecommons.org/ns#" xmlns:dc="http://purl.org/dc/elements/1.1/" xmlns:inkscape="http://www.inkscape.org/namespaces/inkscape" xmlns:rdf="http://www.w3.org/1999/02/22-rdf-syntax-ns#" xmlns:sodipodi="http://sodipodi.sourceforge.net/DTD/sodipodi-0.dtd" xmlns:svg="http://www.w3.org/2000/svg" xmlns:xlink="http://www.w3.org/1999/xlink" y="0.0000000">
  <metadata>
    <rdf:RDF xmlns:cc="http://web.resource.org/cc/" xmlns:dc="http://purl.org/dc/elements/1.1/" xmlns:rdf="http://www.w3.org/1999/02/22-rdf-syntax-ns#">
      <cc:Work rdf:about="">
        <dc:title></dc:title>
        <dc:description></dc:description>
        <dc:subject>
          <rdf:Bag>
            <rdf:li>unsorted</rdf:li>
          </rdf:Bag>
        </dc:subject>
        <dc:publisher>
          <cc:Agent rdf:about="http://www.openclipart.org/">
            <dc:title>Open Clip Art Library, Source: Wiki Commons, Source: Wikimedia Commons, Source: Wikimedia Commons, Source: Wikimedia Commons, Source: Wikimedia Commons</dc:title>
          </cc:Agent>
        </dc:publisher>
        <dc:creator>
          <cc:Agent>
            <dc:title></dc:title>
          </cc:Agent>
        </dc:creator>
        <dc:rights>
          <cc:Agent>
            <dc:title></dc:title>
          </cc:Agent>
        </dc:rights>
        <dc:date></dc:date>
        <dc:format>image/svg+xml</dc:format>
        <dc:type rdf:resource="http://purl.org/dc/dcmitype/StillImage"/>
        <cc:license rdf:resource="http://en.wikipedia.org/wiki/GNU_General_Public_License"/>
        <dc:language>en</dc:language>
      </cc:Work>
    </rdf:RDF>
  </metadata>
  <sodipodi:namedview bordercolor="#666666" borderopacity="1.0" gridtolerance="10.0" guidetolerance="10.0" id="base" inkscape:current-layer="svg1128" inkscape:cx="27.737069" inkscape:cy="30" inkscape:pageopacity="0.0" inkscape:pageshadow="2" inkscape:window-height="674" inkscape:window-width="640" inkscape:window-x="31" inkscape:window-y="119" inkscape:zoom="0.96666667" objecttolerance="10.0" pagecolor="#ffffff" showgrid="false"/>
  <defs id="defs3">
    <inkscape:perspective id="perspective63" inkscape:persp3d-origin="30 : 20 : 1" inkscape:vp_x="0 : 30 : 1" inkscape:vp_y="0 : 1000 : 0" inkscape:vp_z="60 : 30 : 1" sodipodi:type="inkscape:persp3d"/>
    <radialGradient cx="36.266499" cy="-17.689199" fx="36.266499" fy="-17.689199" gradientUnits="userSpaceOnUse" id="defitem14" r="5.4593">
      <stop id="stop48" offset="0.0000000" style="stop-color:#ffffff;stop-opacity:1.0000000;"/>
      <stop id="stop49" offset="1.0000000" style="stop-color:#ffffff;stop-opacity:0.0000000;"/>
    </radialGradient>
    <linearGradient gradientUnits="userSpaceOnUse" id="defitem8" x1="30.424999" x2="30.3438" y1="-18.7941" y2="-11.6491">
      <stop id="stop30" offset="0.0000000" style="stop-color:#ffffff;stop-opacity:1.0000000;"/>
      <stop id="stop31" offset="1.0000000" style="stop-color:#ffffff;stop-opacity:0.0000000;"/>
    </linearGradient>
    <linearGradient gradientUnits="userSpaceOnUse" id="defitem7" x1="35.111198" x2="34.991299" y1="-4.08635" y2="-21.755501">
      <stop id="stop27" offset="0.0000000" style="stop-color:#ffffff;stop-opacity:1.0000000;"/>
      <stop id="stop28" offset="1.0000000" style="stop-color:#ffffff;stop-opacity:0.10588200;"/>
    </linearGradient>
    <radialGradient cx="37.393002" cy="-28.227699" fx="37.393002" fy="-28.227699" gradientUnits="userSpaceOnUse" id="defitem6" r="11.7868">
      <stop id="stop24" offset="0.0000000" style="stop-color:#a8a8a8;stop-opacity:1.0000000;"/>
      <stop id="stop25" offset="1.0000000" style="stop-color:#000000;stop-opacity:1.0000000;"/>
    </radialGradient>
    <radialGradient cx="19.7216" cy="-35.693802" fx="19.7216" fy="-35.693802" gradientUnits="userSpaceOnUse" id="defitem1" r="25.402201">
      <stop id="stop7" offset="0.0000000" style="stop-color:#ffffff;stop-opacity:1.0000000;"/>
      <stop id="stop8" offset="0.52777803" style="stop-color:#c8c8ff;stop-opacity:1.0000000;"/>
      <stop id="stop9" offset="1.0000000" style="stop-color:#5b59ff;stop-opacity:1.0000000;"/>
    </radialGradient>
    <radialGradient cx="19.384199" cy="-37.0112" fx="19.3155" fy="-36.596001" gradientUnits="userSpaceOnUse" id="defitem0" r="18.2054">
      <stop id="stop4" offset="0.0000000" style="stop-color:#a4cdec;stop-opacity:1.0000000;"/>
      <stop id="stop5" offset="1.0000000" style="stop-color:#0068c6;stop-opacity:1.0000000;"/>
    </radialGradient>
    <radialGradient cx="19.384199" cy="-37.0112" fx="19.3155" fy="-36.596001" gradientUnits="userSpaceOnUse" id="radialGradient1206" r="18.2054" xlink:href="#defitem0"/>
    <radialGradient cx="19.7216" cy="-35.693802" fx="19.7216" fy="-35.693802" gradientUnits="userSpaceOnUse" id="radialGradient1207" r="25.402201" xlink:href="#defitem1"/>
    <radialGradient cx="21.085768" cy="-35.257637" fx="21.314995" fy="-35.257637" gradientUnits="userSpaceOnUse" id="radialGradient1208" r="16.295458" xlink:href="#defitem0"/>
    <linearGradient gradientUnits="userSpaceOnUse" id="linearGradient1209" x1="12.584659" x2="12.805657" xlink:href="#defitem7" y1="-17.360142" y2="-28.499565"/>
    <radialGradient cx="24.4807" cy="-21.3972" fx="24.735201" fy="-21.448" gradientUnits="userSpaceOnUse" id="radialGradient1210" r="12.1311" xlink:href="#defitem0"/>
    <radialGradient cx="25.855921" cy="-23.048908" fx="25.855921" fy="-23.048908" gradientUnits="userSpaceOnUse" id="radialGradient1211" r="14.270818" xlink:href="#defitem1"/>
    <radialGradient cx="37.393002" cy="-28.227699" fx="37.393002" fy="-28.227699" gradientUnits="userSpaceOnUse" id="radialGradient1212" r="11.7868" xlink:href="#defitem6"/>
    <linearGradient gradientUnits="userSpaceOnUse" id="linearGradient1213" x1="35.111198" x2="34.991299" xlink:href="#defitem7" y1="-4.08635" y2="-21.755501"/>
    <linearGradient gradientUnits="userSpaceOnUse" id="linearGradient1214" x1="30.424999" x2="30.3438" xlink:href="#defitem8" y1="-18.7941" y2="-11.6491"/>
    <linearGradient gradientUnits="userSpaceOnUse" id="linearGradient1215" x1="44.078499" x2="41.5546" xlink:href="#defitem7" y1="-20.828699" y2="-15.3445"/>
    <linearGradient gradientUnits="userSpaceOnUse" id="linearGradient1216" x1="34.4366" x2="26.7789" xlink:href="#defitem7" y1="-28.318701" y2="-25.192699"/>
    <linearGradient gradientUnits="userSpaceOnUse" id="linearGradient1217" x1="46.838299" x2="41.297798" xlink:href="#defitem7" y1="-36.045101" y2="-28.868999"/>
    <linearGradient gradientUnits="userSpaceOnUse" id="linearGradient1218" x1="25.4673" x2="27.2869" xlink:href="#defitem7" y1="-7.3847799" y2="-20.728001"/>
    <linearGradient gradientUnits="userSpaceOnUse" id="linearGradient1219" x1="39.2271" x2="40.472099" xlink:href="#defitem7" y1="-9.3754797" y2="-10.7152"/>
    <radialGradient cx="36.266499" cy="-17.689199" fx="36.266499" fy="-17.689199" gradientUnits="userSpaceOnUse" id="radialGradient1220" r="5.4593" xlink:href="#defitem14"/>
  </defs>
  <g id="layer1" transform="matrix(4.3823083,0,0,4.975397,-3.1933691,-18.56668)">
    <g id="g50" transform="matrix(1.22841,0,0,-1.22841,0.400493,1.883273)">
      <g id="g51">
        <g id="g52">
          <path d="M 19.5958,-15.75 C 14.5195,-15.75 9.91866,-16.816 6.50434,-18.6142 C 4.79718,-19.5134 3.38713,-20.5957 2.35956,-21.8746 C 1.332,-23.1535 0.691542,-24.6715 0.691542,-26.3233 L 0.691542,-29.6142 C 0.691542,-31.266 1.332,-32.784 2.35956,-34.0629 C 3.38713,-35.3418 4.79718,-36.4242 6.50434,-37.3233 C 9.91866,-39.1215 14.5195,-40.1875 19.5958,-40.1875 C 24.672,-40.1875 29.2729,-39.1215 32.6872,-37.3233 C 34.3944,-36.4242 35.8044,-35.3418 36.832,-34.0629 C 37.8595,-32.784 38.5,-31.266 38.5,-29.6142 L 38.5,-26.3233 C 38.5,-24.6715 37.8595,-23.1535 36.832,-21.8746 C 35.8044,-20.5957 34.3944,-19.5134 32.6872,-18.6142 C 29.2729,-16.816 24.672,-15.75 19.5958,-15.75 z M 19.5958,-17.9439 C 24.4542,-17.9439 28.8551,-19.0235 31.9543,-20.6558 C 33.5039,-21.4719 34.7237,-22.4098 35.5178,-23.3982 C 36.0219,-24.0255 36.2795,-24.6435 36.4529,-25.2569 C 35.5595,-23.8987 34.3426,-22.7037 32.6872,-21.8746 C 30.4617,-20.76 27.6794,-20.1378 24.6504,-20.1378 C 21.618,-20.1378 18.7052,-20.7736 16.4114,-21.9051 C 14.1176,-23.0365 12.3294,-24.6283 11.9128,-26.9023 C 11.8689,-27.1139 11.8777,-27.3365 11.938,-27.5422 C 12.4917,-29.2949 13.9726,-30.8166 16.1334,-32.0214 C 18.2941,-33.2261 21.1792,-34.0324 24.6504,-34.0324 C 28.1255,-34.0324 30.9966,-33.1864 33.1421,-31.9604 C 34.821,-31.0011 35.9194,-29.8273 36.6803,-28.5782 L 36.6803,-29.6142 C 36.6803,-30.5777 36.3119,-31.551 35.5178,-32.5394 C 34.7237,-33.5277 33.5039,-34.4656 31.9543,-35.2817 C 28.8551,-36.914 24.4542,-37.9936 19.5958,-37.9936 C 14.7374,-37.9936 10.3365,-36.914 7.23726,-35.2817 C 5.68765,-34.4656 4.46785,-33.5277 3.67376,-32.5394 C 2.87967,-31.551 2.5112,-30.5777 2.5112,-29.6142 L 2.5112,-26.3233 C 2.5112,-25.3598 2.87967,-24.3865 3.67376,-23.3982 C 4.46785,-22.4098 5.68765,-21.4719 7.23726,-20.6558 C 10.3365,-19.0235 14.7374,-17.9439 19.5958,-17.9439 z M 24.6504,-22.3317 C 27.4593,-22.3317 30.0268,-22.9686 31.9796,-23.9466 C 33.7141,-24.8153 34.8146,-25.963 35.3661,-27.0851 C 34.8975,-27.9341 33.9404,-29.0311 32.3334,-29.9494 C 30.4597,-31.02 27.8716,-31.8385 24.6504,-31.8385 C 21.4252,-31.8385 18.8024,-31.0311 16.9168,-29.9798 C 15.2405,-29.0452 14.2768,-27.9067 13.8841,-27.0851 C 14.2178,-26.0903 15.2782,-24.8851 17.119,-23.9771 C 19.1367,-22.9818 21.8448,-22.3317 24.6504,-22.3317 z" id="path6002" style="fill:#15009e;stroke-width:2.04235005;stroke-linecap:round;stroke-linejoin:round"/>
          <path d="M 19.5958,-16.8469 C 9.66111,-16.8469 1.60137,-21.0925 1.60137,-26.3233 L 1.60137,-29.6142 C 1.60137,-34.845 9.66111,-39.0906 19.5958,-39.0906 C 29.5304,-39.0906 37.5902,-34.845 37.5902,-29.6142 L 37.5902,-26.3233 C 37.5902,-21.0925 29.5304,-16.8469 19.5958,-16.8469 z M 24.6504,-21.2347 C 30.4883,-21.2347 35.3485,-23.7549 36.5034,-27.0851 C 35.5704,-29.5996 31.3467,-32.9355 24.6504,-32.9355 C 17.954,-32.9355 13.614,-29.7034 12.8053,-27.1434 C 13.4118,-23.8329 18.8124,-21.2347 24.6504,-21.2347 z" id="path1062" style="fill:url(#radialGradient1206);stroke-width:0.78827602;stroke-linecap:round;stroke-linejoin:round"/>
          <path d="M 1.70246,-26.0491 C 1.68531,-26.2229 1.60137,-26.391 1.60137,-26.5671 C 1.60137,-31.9319 9.66111,-36.2873 19.5958,-36.2873 C 29.5304,-36.2873 37.5902,-31.9319 37.5902,-26.5671 C 37.5902,-26.4013 37.5043,-26.2433 37.4891,-26.0796 C 36.9585,-30.6772 29.1872,-34.3371 19.5958,-34.3371 C 9.98413,-34.3371 2.20321,-30.6604 1.70246,-26.0491 z" id="path1061" style="fill:url(#radialGradient1207);stroke-width:0;stroke-linecap:round"/>
          <path d="M 19.5958,-16.8469 C 9.66111,-16.8469 1.60137,-20.7632 1.60137,-25.592 C 1.60137,-30.4208 9.66111,-34.3371 19.5958,-34.3371 C 29.5304,-34.3371 37.5902,-30.4208 37.5902,-25.592 C 37.5902,-20.7632 29.5304,-16.8469 19.5958,-16.8469 z M 24.6504,-18.2486 C 31.3467,-18.2486 36.7814,-21.5346 36.7814,-25.592 C 36.7814,-29.6495 31.3467,-32.9355 24.6504,-32.9355 C 17.954,-32.9355 12.5193,-29.6495 12.5193,-25.592 C 12.5193,-21.5346 17.954,-18.2486 24.6504,-18.2486 z" id="path1695" style="fill:url(#radialGradient1208);fill-opacity:1;stroke-width:0;stroke-linecap:round"/>
          <path d="M 19.5958,-17.2126 C 10.2851,-17.2126 2.71338,-20.8837 2.71338,-25.4092 C 2.71338,-29.5105 10.0109,-28.3323 11.2051,-28.0602 C 11.024,-27.5165 10.9018,-26.9923 10.9018,-26.4148 C 10.9018,-21.9096 16.0499,-17.5588 23.1926,-17.5588 C 21.7175,-17.299 20.8595,-17.2126 19.5958,-17.2126 z" id="path2321" style="opacity:0.75502008;fill:url(#linearGradient1209);fill-opacity:1;stroke-width:0;stroke-linecap:round"/>
          <path d="M 24.6504,-18.2486 C 17.954,-18.2486 12.5193,-21.5346 12.5193,-25.592 C 12.5193,-26.1122 12.6275,-26.5954 12.7973,-27.0851 C 13.9523,-23.7549 18.8124,-21.2347 24.6504,-21.2347 C 30.4883,-21.2347 35.3485,-23.7549 36.5034,-27.0851 C 36.6733,-26.5954 36.7814,-26.1122 36.7814,-25.592 C 36.7814,-21.5346 31.3467,-18.2486 24.6504,-18.2486 z" id="path1369" style="fill:url(#radialGradient1210);fill-opacity:1;stroke-width:0;stroke-linecap:round"/>
          <path d="M 24.6504,-18.2486 C 17.954,-18.2486 12.5193,-21.5346 12.5193,-25.592 C 12.5193,-25.7504 12.5764,-25.8963 12.5951,-26.0491 C 13.0363,-22.2348 18.2429,-19.2237 24.6504,-19.2237 C 31.0579,-19.2237 36.2644,-22.2348 36.7056,-26.0491 C 36.7244,-25.8963 36.7814,-25.7504 36.7814,-25.592 C 36.7814,-21.5346 31.3467,-18.2486 24.6504,-18.2486 z" id="path5979" style="fill:url(#radialGradient1211);fill-opacity:1;stroke-width:0;stroke-linecap:round"/>
        </g>
        <path d="M 23.6737,-5.44768 C 23.2274,-5.49581 22.8899,-5.87381 22.8925,-6.32268 L 22.8925,-31.8484 C 24.9458,-32.0987 29.359,-31.605 31.6737,-30.6352 C 31.9986,-30.4964 32.2081,-30.1759 32.205,-29.8227 L 32.205,-25.3852 L 33.455,-25.3852 C 34.5219,-25.3852 35.2534,-25.6284 35.7987,-26.0102 C 36.8551,-27.2701 37.4197,-29.6275 37.6112,-31.6977 C 37.8066,-33.809 37.6737,-35.5414 37.6737,-35.5414 C 37.6564,-35.7841 37.7408,-36.0231 37.9068,-36.2009 C 38.0728,-36.3788 38.3054,-36.4795 38.5487,-36.4789 L 46.58,-36.4789 C 47.0398,-36.4801 47.4221,-36.1251 47.455,-35.6664 C 47.6179,-33.4783 47.3274,-30.7857 46.7675,-28.3852 C 46.2187,-26.0329 45.5042,-24.0078 44.205,-22.9164 C 44.1792,-22.89 44.1685,-22.8486 44.1425,-22.8227 C 43.7743,-22.4567 43.374,-22.1467 42.955,-21.8852 C 44.0638,-21.2987 45.0475,-20.6192 45.7362,-19.6977 C 46.8126,-18.2774 47.3299,-16.4597 47.33,-14.3852 C 47.3299,-11.404 46.3139,-9.00959 44.2675,-7.54143 C 42.9691,-6.60324 41.2606,-6.13938 39.33,-5.82268 C 38.9405,-5.75886 38.5564,-5.96367 38.3925,-6.32268 L 35.8925,-11.3852 C 35.7003,-11.7928 35.8491,-12.2796 36.2362,-12.5102 C 36.6125,-12.7295 36.9734,-13.021 37.33,-13.3227 C 37.3298,-13.3331 37.3298,-13.3435 37.33,-13.3539 C 37.7715,-13.7206 38.0487,-14.3253 38.0487,-15.5102 C 38.0487,-16.7096 37.7672,-17.3889 37.33,-17.7602 C 36.9117,-18.1221 35.9617,-18.4165 34.4862,-18.4164 L 32.205,-18.4164 L 32.205,-6.32268 C 32.2049,-5.83945 31.8132,-5.44773 31.33,-5.44768 L 23.7675,-5.44768 C 23.7362,-5.44601 23.7049,-5.44601 23.6737,-5.44768 L 23.6737,-5.44768 z M 24.6425,-7.19768 L 30.455,-7.19768 L 30.455,-19.2914 C 30.455,-19.7747 30.8467,-20.1664 31.33,-20.1664 L 34.4862,-20.1664 C 36.1734,-20.1665 37.514,-19.887 38.455,-19.0727 C 39.403,-18.2678 39.7987,-17.003 39.7987,-15.5102 C 39.7987,-14.029 39.3987,-12.7624 38.455,-11.9789 C 38.2732,-11.8252 37.9953,-11.654 37.7675,-11.4789 L 39.6112,-7.76018 C 41.0953,-8.05636 42.4965,-8.42187 43.2675,-8.97893 C 44.828,-10.0985 45.5799,-11.7728 45.58,-14.3852 C 45.5799,-16.1791 45.1667,-17.5724 44.3612,-18.6352 C 43.5634,-19.7027 42.3325,-20.525 40.58,-21.0727 C 40.2032,-21.1904 39.9519,-21.5459 39.9665,-21.9403 C 39.9811,-22.3348 40.258,-22.6706 40.6425,-22.7602 C 41.5135,-22.9587 42.2842,-23.3793 42.9862,-24.1039 C 43.015,-24.1375 43.0464,-24.1688 43.08,-24.1977 C 43.6463,-24.6475 44.5583,-26.5553 45.08,-28.7914 C 45.5389,-30.7588 45.6868,-32.9043 45.6425,-34.7289 L 39.4237,-34.7289 C 39.4532,-34.1318 39.5239,-33.2681 39.3612,-31.5102 C 39.1512,-29.2404 38.6422,-26.5279 37.0487,-24.7289 C 37.0114,-24.6832 36.9695,-24.6413 36.9237,-24.6039 C 36.0081,-23.9336 34.8148,-23.6352 33.455,-23.6352 L 31.33,-23.6352 C 30.8467,-23.6352 30.455,-24.027 30.455,-24.5102 L 30.455,-29.1664 C 28.909,-29.7198 26.7348,-30.0664 24.6425,-30.0727 L 24.6425,-7.19768 z" id="path2113" style="fill:#000000;stroke-width:1.75;stroke-linejoin:round"/>
        <path d="M 23.7675,-6.32268 L 23.7675,-31.0102 C 26.4223,-31.1492 29.4397,-30.6104 31.33,-29.8227 L 31.33,-24.5102 L 33.455,-24.5102 C 34.6834,-24.5102 35.6606,-24.7869 36.3925,-25.3227 C 39.0836,-28.3608 38.5487,-35.6039 38.5487,-35.6039 L 46.58,-35.6039 C 46.8866,-31.486 45.5288,-25.0332 43.6112,-23.5102 C 42.8009,-22.6738 41.8624,-22.1517 40.83,-21.9164 C 42.7119,-21.3283 44.1208,-20.408 45.0487,-19.1664 C 45.9897,-17.9249 46.4549,-16.3194 46.455,-14.3852 C 46.4549,-11.5884 45.571,-9.55405 43.7675,-8.26018 C 42.6706,-7.46756 41.0456,-7.00474 39.1737,-6.69768 L 36.6762,-11.7576 C 37.1391,-12.0274 37.5371,-12.3658 37.8925,-12.6664 C 38.5851,-13.2415 38.9237,-14.1772 38.9237,-15.5102 C 38.9237,-16.8563 38.5851,-17.8283 37.8925,-18.4164 C 37.2128,-19.0046 36.0676,-19.2915 34.4862,-19.2914 L 31.33,-19.2914 L 31.3343,-6.32268 L 23.7675,-6.32268 z" id="text6008" style="fill:url(#radialGradient1212);stroke-width:0"/>
        <path d="M 24.7987,-7.35393 L 24.7987,-20.6352 C 28.3914,-22.4973 34.4935,-23.4202 41.0487,-23.1664 C 40.894,-23.1121 40.7743,-22.9536 40.6112,-22.9164 C 40.1659,-22.8116 39.8517,-22.4359 39.83,-21.9789 C 39.8082,-21.522 40.0842,-21.0944 40.5175,-20.9477 C 42.2478,-20.407 43.4607,-19.5791 44.2362,-18.5414 C 45.0185,-17.5093 45.4237,-16.1551 45.4237,-14.3852 C 45.4237,-11.8044 44.6926,-10.1936 43.1737,-9.10393 C 42.4543,-8.58411 41.1197,-8.20956 39.705,-7.91643 L 37.955,-11.4477 C 38.1467,-11.599 38.3929,-11.7533 38.5487,-11.8852 C 39.5355,-12.7044 39.9549,-14.0036 39.955,-15.5102 C 39.9549,-17.0282 39.5405,-18.3556 38.5487,-19.1977 C 37.5629,-20.0508 36.1915,-20.3227 34.4862,-20.3227 L 31.33,-20.3227 C 31.0559,-20.3243 30.805,-20.2039 30.6112,-20.0102 C 30.4175,-19.8164 30.2971,-19.5654 30.2987,-19.2914 L 30.2987,-7.35393 L 24.7987,-7.35393 z" id="path2090" style="fill:url(#linearGradient1213);stroke-width:0"/>
        <path d="M 29.5312,-7.34375 L 29.5312,-18.4062 C 29.5296,-18.6803 29.65,-18.9312 29.8438,-19.125 C 29.9787,-19.2599 30.1649,-19.2964 30.3438,-19.3438 C 30.342,-19.3197 30.3124,-19.3056 30.3125,-19.2812 L 30.3125,-7.34375 L 29.5312,-7.34375 z" id="path2141" style="fill:url(#linearGradient1214);stroke-width:0"/>
        <path d="M 43.0625,-9.0625 C 44.0251,-10.1139 44.6562,-11.4462 44.6562,-13.5 C 44.6562,-15.2699 44.2198,-16.6553 43.4375,-17.6875 C 42.662,-18.7251 41.4804,-19.5218 39.75,-20.0625 C 39.3155,-20.203 39.0168,-20.6061 39.0312,-21.0625 C 39.0457,-21.5189 39.37,-21.9186 39.8125,-22.0312 C 39.8709,-22.0446 39.9112,-22.1095 39.9688,-22.125 C 39.9435,-22.0416 39.8153,-22.027 39.8125,-21.9375 C 39.798,-21.4811 40.0968,-21.078 40.5312,-20.9375 C 42.2616,-20.3968 43.4432,-19.6001 44.2188,-18.5625 C 45.001,-17.5303 45.4375,-16.1449 45.4375,-14.375 C 45.4375,-11.7942 44.6752,-10.1835 43.1562,-9.09375 C 43.1368,-9.07971 43.0828,-9.07629 43.0625,-9.0625 z" id="path2161" style="fill:url(#linearGradient1215);fill-opacity:1;stroke-width:0"/>
        <path d="M 38,-11.3438 L 37.9688,-11.4375 C 38.0374,-11.4918 38.1098,-11.5387 38.1875,-11.5938 C 38.1231,-11.5096 38.0725,-11.4217 38,-11.3438 z" id="path2159" style="fill:#419342;stroke-width:0"/>
        <path d="M 30.5625,-22.625 C 30.0036,-22.6215 29.5449,-23.0663 29.5312,-23.625 L 29.5312,-28.1562 C 29.5168,-28.9489 26.6739,-29.4763 24.7812,-29.9375 C 26.7826,-29.9147 28.8222,-29.5505 30.3125,-29.0312 L 30.3125,-24.5 C 30.3262,-23.9413 30.7849,-23.4965 31.3438,-23.5 L 33.4688,-23.5 C 34.703,-23.5 35.7627,-23.7979 36.6562,-24.3438 C 36.532,-24.1732 36.5155,-23.9398 36.375,-23.7812 C 36.3287,-23.7237 36.2763,-23.6713 36.2188,-23.625 C 35.2717,-22.9317 34.0699,-22.625 32.6875,-22.625 L 30.5625,-22.625 z" id="path2157" style="fill:url(#linearGradient1216);fill-opacity:1;stroke-width:0"/>
        <path d="M 42.5625,-24.0312 C 43.0799,-24.7771 43.7369,-26.1399 44.1562,-27.9375 C 44.6022,-29.8493 44.7176,-31.9329 44.6875,-33.7188 C 44.6875,-33.7188 39.5396,-34.4089 39.5312,-34.5938 L 45.4688,-34.5938 C 45.4988,-32.8079 45.3835,-30.7243 44.9375,-28.8125 C 44.4191,-26.5905 43.4678,-24.7088 42.9688,-24.3125 C 42.9355,-24.2833 42.9042,-24.252 42.875,-24.2188 C 42.7804,-24.1211 42.6599,-24.118 42.5625,-24.0312 z" id="path2155" style="fill:url(#linearGradient1217);fill-opacity:1;stroke-width:0"/>
        <path d="M 24.6875,-7.25 L 24.6875,-24.9062 L 25.5625,-8.125 L 30.4062,-7.25 L 24.6875,-7.25 z" id="path2201" style="fill:url(#linearGradient1218);fill-opacity:1;stroke-width:0"/>
        <path d="M 39.625,-7.8125 L 37.8438,-11.4688 L 40.5,-8.6875 C 41.8868,-8.96532 43.0954,-9.31956 43.875,-9.8125 C 43.6377,-9.55953 43.5121,-9.21048 43.2188,-9 C 42.4597,-8.4515 41.1004,-8.10807 39.625,-7.8125 z" id="path2223" style="fill:url(#linearGradient1219);fill-opacity:1;stroke-width:0"/>
        <path d="M 39.8438,-15.5 C 39.8437,-17.0012 39.4626,-18.3077 38.5,-19.125 C 37.5441,-19.9522 36.1932,-20.2188 34.5,-20.2188 L 31.3438,-20.2188 C 31.3294,-20.2189 31.3267,-20.188 31.3125,-20.1875 C 31.3213,-20.4206 31.3961,-20.6461 31.5625,-20.8125 C 31.7391,-20.9891 31.9691,-21.0971 32.2188,-21.0938 L 35.375,-21.0938 C 37.0682,-21.0938 38.4191,-20.8272 39.375,-20 C 40.3376,-19.1827 40.7187,-17.8762 40.7188,-16.375 C 40.7187,-14.8853 40.3018,-13.6392 39.3438,-12.8438 C 39.1773,-12.7029 39.8437,-14.202 39.8438,-15.5 z" id="path2221" style="fill:url(#radialGradient1220);stroke-width:0"/>
      </g>
    </g>
  </g>
</svg>
